<mxfile host="Electron" agent="Mozilla/5.0 (Windows NT 10.0; Win64; x64) AppleWebKit/537.36 (KHTML, like Gecko) draw.io/24.7.17 Chrome/128.0.6613.36 Electron/32.0.1 Safari/537.36" version="24.7.17">
  <diagram id="C5RBs43oDa-KdzZeNtuy" name="Page-1">
    <mxGraphModel dx="2120" dy="639" grid="1" gridSize="10" guides="1" tooltips="1" connect="1" arrows="1" fold="1" page="1" pageScale="1" pageWidth="827" pageHeight="1169" math="0" shadow="0">
      <root>
        <mxCell id="WIyWlLk6GJQsqaUBKTNV-0" />
        <mxCell id="WIyWlLk6GJQsqaUBKTNV-1" parent="WIyWlLk6GJQsqaUBKTNV-0" />
        <mxCell id="zkfFHV4jXpPFQw0GAbJ--0" value="Pokemon" style="swimlane;fontStyle=2;align=center;verticalAlign=top;childLayout=stackLayout;horizontal=1;startSize=30;horizontalStack=0;resizeParent=1;resizeLast=0;collapsible=1;marginBottom=0;rounded=0;shadow=0;strokeWidth=1;" parent="WIyWlLk6GJQsqaUBKTNV-1" vertex="1">
          <mxGeometry x="300" y="170" width="380" height="160" as="geometry">
            <mxRectangle x="230" y="140" width="160" height="26" as="alternateBounds" />
          </mxGeometry>
        </mxCell>
        <mxCell id="zkfFHV4jXpPFQw0GAbJ--1" value="- Almacenar y gentionar                    - Ataque&#xa;informacion del pokemon                  - GestorDeItems                  " style="text;align=left;verticalAlign=top;spacingLeft=4;spacingRight=4;overflow=hidden;rotatable=0;points=[[0,0.5],[1,0.5]];portConstraint=eastwest;" parent="zkfFHV4jXpPFQw0GAbJ--0" vertex="1">
          <mxGeometry y="30" width="380" height="40" as="geometry" />
        </mxCell>
        <mxCell id="6fUTlpf4RYFusp5NiyDY-0" value="" style="endArrow=none;html=1;rounded=0;entryX=0.5;entryY=1;entryDx=0;entryDy=0;" parent="zkfFHV4jXpPFQw0GAbJ--0" target="zkfFHV4jXpPFQw0GAbJ--0" edge="1">
          <mxGeometry width="50" height="50" relative="1" as="geometry">
            <mxPoint x="190" y="30" as="sourcePoint" />
            <mxPoint x="144.5" y="116" as="targetPoint" />
          </mxGeometry>
        </mxCell>
        <mxCell id="zkfFHV4jXpPFQw0GAbJ--2" value="- Recibe y realiza ataques                 - GestorEfectos" style="text;align=left;verticalAlign=top;spacingLeft=4;spacingRight=4;overflow=hidden;rotatable=0;points=[[0,0.5],[1,0.5]];portConstraint=eastwest;rounded=0;shadow=0;html=0;" parent="zkfFHV4jXpPFQw0GAbJ--0" vertex="1">
          <mxGeometry y="70" width="380" height="26" as="geometry" />
        </mxCell>
        <mxCell id="zkfFHV4jXpPFQw0GAbJ--3" value="                                                          - Pokedex" style="text;align=left;verticalAlign=top;spacingLeft=4;spacingRight=4;overflow=hidden;rotatable=0;points=[[0,0.5],[1,0.5]];portConstraint=eastwest;rounded=0;shadow=0;html=0;" parent="zkfFHV4jXpPFQw0GAbJ--0" vertex="1">
          <mxGeometry y="96" width="380" height="26" as="geometry" />
        </mxCell>
        <mxCell id="zkfFHV4jXpPFQw0GAbJ--5" value="- Verificar si el pokemon fue             - Entrenador&#xa;derrotado" style="text;align=left;verticalAlign=top;spacingLeft=4;spacingRight=4;overflow=hidden;rotatable=0;points=[[0,0.5],[1,0.5]];portConstraint=eastwest;" parent="zkfFHV4jXpPFQw0GAbJ--0" vertex="1">
          <mxGeometry y="122" width="380" height="38" as="geometry" />
        </mxCell>
        <mxCell id="6fUTlpf4RYFusp5NiyDY-1" value="Static LogicaTipo" style="swimlane;fontStyle=2;align=center;verticalAlign=top;childLayout=stackLayout;horizontal=1;startSize=26;horizontalStack=0;resizeParent=1;resizeLast=0;collapsible=1;marginBottom=0;rounded=0;shadow=0;strokeWidth=1;" parent="WIyWlLk6GJQsqaUBKTNV-1" vertex="1">
          <mxGeometry x="-30" y="410" width="290" height="130" as="geometry">
            <mxRectangle x="230" y="140" width="160" height="26" as="alternateBounds" />
          </mxGeometry>
        </mxCell>
        <mxCell id="6fUTlpf4RYFusp5NiyDY-3" value="" style="endArrow=none;html=1;rounded=0;entryX=0.5;entryY=1;entryDx=0;entryDy=0;" parent="6fUTlpf4RYFusp5NiyDY-1" target="6fUTlpf4RYFusp5NiyDY-1" edge="1">
          <mxGeometry width="50" height="50" relative="1" as="geometry">
            <mxPoint x="144.5" y="26" as="sourcePoint" />
            <mxPoint x="144.5" y="116" as="targetPoint" />
          </mxGeometry>
        </mxCell>
        <mxCell id="6fUTlpf4RYFusp5NiyDY-2" value="- Almacenar fortalezas,        - Ataque    &#xa;debilidades e &#xa;inmunidades del tipo de      - Pokemon&#xa;pokemon &#xa;- Calcula el multiplicador&#xa;del ataque            " style="text;align=left;verticalAlign=top;spacingLeft=4;spacingRight=4;overflow=hidden;rotatable=0;points=[[0,0.5],[1,0.5]];portConstraint=eastwest;" parent="6fUTlpf4RYFusp5NiyDY-1" vertex="1">
          <mxGeometry y="26" width="290" height="104" as="geometry" />
        </mxCell>
        <mxCell id="6fUTlpf4RYFusp5NiyDY-7" value="Static Ataque" style="swimlane;fontStyle=2;align=center;verticalAlign=top;childLayout=stackLayout;horizontal=1;startSize=26;horizontalStack=0;resizeParent=1;resizeLast=0;collapsible=1;marginBottom=0;rounded=0;shadow=0;strokeWidth=1;" parent="WIyWlLk6GJQsqaUBKTNV-1" vertex="1">
          <mxGeometry x="780" y="50" width="290" height="150" as="geometry">
            <mxRectangle x="230" y="140" width="160" height="26" as="alternateBounds" />
          </mxGeometry>
        </mxCell>
        <mxCell id="6fUTlpf4RYFusp5NiyDY-9" value="" style="endArrow=none;html=1;rounded=0;entryX=0.5;entryY=1;entryDx=0;entryDy=0;" parent="6fUTlpf4RYFusp5NiyDY-7" target="6fUTlpf4RYFusp5NiyDY-7" edge="1" source="6fUTlpf4RYFusp5NiyDY-10">
          <mxGeometry width="50" height="50" relative="1" as="geometry">
            <mxPoint x="144.5" y="26" as="sourcePoint" />
            <mxPoint x="144.5" y="116" as="targetPoint" />
          </mxGeometry>
        </mxCell>
        <mxCell id="6fUTlpf4RYFusp5NiyDY-10" value="- Lleva la logica de los        - Pokemon&#xa;ataques de todos los &#xa;pokemones&#xa;- Calcula el daño de los      - GestorEfectos&#xa;ataques&#xa;- Calcula la presicion, el     - LogicaTipos&#xa;critico y el efecto de un &#xa;ataque&#xa;&#xa;" style="text;align=left;verticalAlign=top;spacingLeft=4;spacingRight=4;overflow=hidden;rotatable=0;points=[[0,0.5],[1,0.5]];portConstraint=eastwest;rounded=0;shadow=0;html=0;" parent="6fUTlpf4RYFusp5NiyDY-7" vertex="1">
          <mxGeometry y="26" width="290" height="124" as="geometry" />
        </mxCell>
        <mxCell id="8jYFOJme-qLX-y-gI76f-8" value="" style="endArrow=none;html=1;rounded=0;entryX=0.503;entryY=1.022;entryDx=0;entryDy=0;entryPerimeter=0;" edge="1" parent="6fUTlpf4RYFusp5NiyDY-7" target="6fUTlpf4RYFusp5NiyDY-10">
          <mxGeometry width="50" height="50" relative="1" as="geometry">
            <mxPoint x="145" y="26" as="sourcePoint" />
            <mxPoint x="145.5" y="130" as="targetPoint" />
          </mxGeometry>
        </mxCell>
        <mxCell id="6fUTlpf4RYFusp5NiyDY-19" value="Entrenador" style="swimlane;fontStyle=2;align=center;verticalAlign=top;childLayout=stackLayout;horizontal=1;startSize=26;horizontalStack=0;resizeParent=1;resizeLast=0;collapsible=1;marginBottom=0;rounded=0;shadow=0;strokeWidth=1;" parent="WIyWlLk6GJQsqaUBKTNV-1" vertex="1">
          <mxGeometry x="700" y="200" width="360" height="200" as="geometry">
            <mxRectangle x="230" y="140" width="160" height="26" as="alternateBounds" />
          </mxGeometry>
        </mxCell>
        <mxCell id="6fUTlpf4RYFusp5NiyDY-20" value="- Gestionar un equipo pokemon     - Pokemon&#xa;y mostrar la pokedex&#xa;" style="text;align=left;verticalAlign=top;spacingLeft=4;spacingRight=4;overflow=hidden;rotatable=0;points=[[0,0.5],[1,0.5]];portConstraint=eastwest;" parent="6fUTlpf4RYFusp5NiyDY-19" vertex="1">
          <mxGeometry y="26" width="360" height="44" as="geometry" />
        </mxCell>
        <mxCell id="6fUTlpf4RYFusp5NiyDY-21" value="" style="endArrow=none;html=1;rounded=0;entryX=0.5;entryY=1;entryDx=0;entryDy=0;" parent="6fUTlpf4RYFusp5NiyDY-19" target="6fUTlpf4RYFusp5NiyDY-19" edge="1">
          <mxGeometry width="50" height="50" relative="1" as="geometry">
            <mxPoint x="180" y="28" as="sourcePoint" />
            <mxPoint x="144.5" y="116" as="targetPoint" />
          </mxGeometry>
        </mxCell>
        <mxCell id="6fUTlpf4RYFusp5NiyDY-22" value="- Llevar la logica del cambio de&#xa;pokemon, el uso de los items         - Batalla&#xa;&#xa;- Tiene nombre" style="text;align=left;verticalAlign=top;spacingLeft=4;spacingRight=4;overflow=hidden;rotatable=0;points=[[0,0.5],[1,0.5]];portConstraint=eastwest;rounded=0;shadow=0;html=0;" parent="6fUTlpf4RYFusp5NiyDY-19" vertex="1">
          <mxGeometry y="70" width="360" height="80" as="geometry" />
        </mxCell>
        <mxCell id="6fUTlpf4RYFusp5NiyDY-23" value="- Cambiar pokemon activo             - PokeDex         &#xa; durante la batalla                           - IPorTurnos&#xa;" style="text;align=left;verticalAlign=top;spacingLeft=4;spacingRight=4;overflow=hidden;rotatable=0;points=[[0,0.5],[1,0.5]];portConstraint=eastwest;rounded=0;shadow=0;html=0;" parent="6fUTlpf4RYFusp5NiyDY-19" vertex="1">
          <mxGeometry y="150" width="360" height="40" as="geometry" />
        </mxCell>
        <mxCell id="6fUTlpf4RYFusp5NiyDY-31" value="Battle" style="swimlane;fontStyle=2;align=center;verticalAlign=top;childLayout=stackLayout;horizontal=1;startSize=26;horizontalStack=0;resizeParent=1;resizeLast=0;collapsible=1;marginBottom=0;rounded=0;shadow=0;strokeWidth=1;" parent="WIyWlLk6GJQsqaUBKTNV-1" vertex="1">
          <mxGeometry x="-20" y="170" width="290" height="230" as="geometry">
            <mxRectangle x="230" y="140" width="160" height="26" as="alternateBounds" />
          </mxGeometry>
        </mxCell>
        <mxCell id="6fUTlpf4RYFusp5NiyDY-33" value="" style="endArrow=none;html=1;rounded=0;entryX=0.5;entryY=1;entryDx=0;entryDy=0;" parent="6fUTlpf4RYFusp5NiyDY-31" target="6fUTlpf4RYFusp5NiyDY-31" edge="1">
          <mxGeometry width="50" height="50" relative="1" as="geometry">
            <mxPoint x="144.5" y="26" as="sourcePoint" />
            <mxPoint x="144.5" y="116" as="targetPoint" />
          </mxGeometry>
        </mxCell>
        <mxCell id="6fUTlpf4RYFusp5NiyDY-32" value="- Iniciar y terminar la           - Entrenador &#xa;batalla                                 - Pokemon " style="text;align=left;verticalAlign=top;spacingLeft=4;spacingRight=4;overflow=hidden;rotatable=0;points=[[0,0.5],[1,0.5]];portConstraint=eastwest;" parent="6fUTlpf4RYFusp5NiyDY-31" vertex="1">
          <mxGeometry y="26" width="290" height="34" as="geometry" />
        </mxCell>
        <mxCell id="6fUTlpf4RYFusp5NiyDY-34" value="- Procesar los turnos de     - BattleList&#xa;los entrenadores               " style="text;align=left;verticalAlign=top;spacingLeft=4;spacingRight=4;overflow=hidden;rotatable=0;points=[[0,0.5],[1,0.5]];portConstraint=eastwest;rounded=0;shadow=0;html=0;" parent="6fUTlpf4RYFusp5NiyDY-31" vertex="1">
          <mxGeometry y="60" width="290" height="40" as="geometry" />
        </mxCell>
        <mxCell id="6fUTlpf4RYFusp5NiyDY-35" value="- Aplicar la logica de           - GestorEfectos&#xa;ataque, cambio&#xa;de Pokemon e IItems" style="text;align=left;verticalAlign=top;spacingLeft=4;spacingRight=4;overflow=hidden;rotatable=0;points=[[0,0.5],[1,0.5]];portConstraint=eastwest;rounded=0;shadow=0;html=0;" parent="6fUTlpf4RYFusp5NiyDY-31" vertex="1">
          <mxGeometry y="100" width="290" height="50" as="geometry" />
        </mxCell>
        <mxCell id="6fUTlpf4RYFusp5NiyDY-36" value="- Determinar el ganador&#xa;del combate&#xa;&#xa;- Validaciones del &#xa;combate&#xa;" style="text;align=left;verticalAlign=top;spacingLeft=4;spacingRight=4;overflow=hidden;rotatable=0;points=[[0,0.5],[1,0.5]];portConstraint=eastwest;" parent="6fUTlpf4RYFusp5NiyDY-31" vertex="1">
          <mxGeometry y="150" width="290" height="80" as="geometry" />
        </mxCell>
        <mxCell id="6fUTlpf4RYFusp5NiyDY-13" value="BattlesList" style="swimlane;fontStyle=2;align=center;verticalAlign=top;childLayout=stackLayout;horizontal=1;startSize=26;horizontalStack=0;resizeParent=1;resizeLast=0;collapsible=1;marginBottom=0;rounded=0;shadow=0;strokeWidth=1;" parent="WIyWlLk6GJQsqaUBKTNV-1" vertex="1">
          <mxGeometry x="94" y="50" width="320" height="110" as="geometry">
            <mxRectangle x="230" y="140" width="160" height="26" as="alternateBounds" />
          </mxGeometry>
        </mxCell>
        <mxCell id="6fUTlpf4RYFusp5NiyDY-15" value="" style="endArrow=none;html=1;rounded=0;entryX=0.5;entryY=1;entryDx=0;entryDy=0;" parent="6fUTlpf4RYFusp5NiyDY-13" target="6fUTlpf4RYFusp5NiyDY-13" edge="1">
          <mxGeometry width="50" height="50" relative="1" as="geometry">
            <mxPoint x="160" y="26" as="sourcePoint" />
            <mxPoint x="144.5" y="116" as="targetPoint" />
          </mxGeometry>
        </mxCell>
        <mxCell id="6fUTlpf4RYFusp5NiyDY-14" value="- Gestionar la lista de               - WaitingList&#xa;batallas, agregando y &#xa;eliminando batallas                  - Battle" style="text;align=left;verticalAlign=top;spacingLeft=4;spacingRight=4;overflow=hidden;rotatable=0;points=[[0,0.5],[1,0.5]];portConstraint=eastwest;" parent="6fUTlpf4RYFusp5NiyDY-13" vertex="1">
          <mxGeometry y="26" width="320" height="44" as="geometry" />
        </mxCell>
        <mxCell id="6fUTlpf4RYFusp5NiyDY-16" value="- Busca al entrenador por el&#xa;nombre del display" style="text;align=left;verticalAlign=top;spacingLeft=4;spacingRight=4;overflow=hidden;rotatable=0;points=[[0,0.5],[1,0.5]];portConstraint=eastwest;rounded=0;shadow=0;html=0;" parent="6fUTlpf4RYFusp5NiyDY-13" vertex="1">
          <mxGeometry y="70" width="320" height="40" as="geometry" />
        </mxCell>
        <mxCell id="46vqmNXSLOu3TlP1rHBQ-2" value="PokeDex" style="swimlane;fontStyle=2;align=center;verticalAlign=top;childLayout=stackLayout;horizontal=1;startSize=26;horizontalStack=0;resizeParent=1;resizeLast=0;collapsible=1;marginBottom=0;rounded=0;shadow=0;strokeWidth=1;" parent="WIyWlLk6GJQsqaUBKTNV-1" vertex="1">
          <mxGeometry x="430" y="40" width="320" height="110" as="geometry">
            <mxRectangle x="230" y="140" width="160" height="26" as="alternateBounds" />
          </mxGeometry>
        </mxCell>
        <mxCell id="46vqmNXSLOu3TlP1rHBQ-3" value="- Almacnar y mostrar lista         - Pokemon &#xa;de pokemones disponibles" style="text;align=left;verticalAlign=top;spacingLeft=4;spacingRight=4;overflow=hidden;rotatable=0;points=[[0,0.5],[1,0.5]];portConstraint=eastwest;" parent="46vqmNXSLOu3TlP1rHBQ-2" vertex="1">
          <mxGeometry y="26" width="320" height="44" as="geometry" />
        </mxCell>
        <mxCell id="46vqmNXSLOu3TlP1rHBQ-4" value="" style="endArrow=none;html=1;rounded=0;entryX=0.5;entryY=1;entryDx=0;entryDy=0;" parent="46vqmNXSLOu3TlP1rHBQ-2" target="46vqmNXSLOu3TlP1rHBQ-2" edge="1">
          <mxGeometry width="50" height="50" relative="1" as="geometry">
            <mxPoint x="160" y="28" as="sourcePoint" />
            <mxPoint x="144.5" y="116" as="targetPoint" />
          </mxGeometry>
        </mxCell>
        <mxCell id="46vqmNXSLOu3TlP1rHBQ-5" value="                                                 - Entrenador" style="text;align=left;verticalAlign=top;spacingLeft=4;spacingRight=4;overflow=hidden;rotatable=0;points=[[0,0.5],[1,0.5]];portConstraint=eastwest;rounded=0;shadow=0;html=0;" parent="46vqmNXSLOu3TlP1rHBQ-2" vertex="1">
          <mxGeometry y="70" width="320" height="40" as="geometry" />
        </mxCell>
        <mxCell id="8jYFOJme-qLX-y-gI76f-1" value="GestorDeItems" style="swimlane;fontStyle=2;align=center;verticalAlign=top;childLayout=stackLayout;horizontal=1;startSize=26;horizontalStack=0;resizeParent=1;resizeLast=0;collapsible=1;marginBottom=0;rounded=0;shadow=0;strokeWidth=1;" vertex="1" parent="WIyWlLk6GJQsqaUBKTNV-1">
          <mxGeometry x="310" y="340" width="290" height="80" as="geometry">
            <mxRectangle x="230" y="140" width="160" height="26" as="alternateBounds" />
          </mxGeometry>
        </mxCell>
        <mxCell id="8jYFOJme-qLX-y-gI76f-2" value="" style="endArrow=none;html=1;rounded=0;entryX=0.5;entryY=1;entryDx=0;entryDy=0;" edge="1" parent="8jYFOJme-qLX-y-gI76f-1" source="8jYFOJme-qLX-y-gI76f-3" target="8jYFOJme-qLX-y-gI76f-1">
          <mxGeometry width="50" height="50" relative="1" as="geometry">
            <mxPoint x="144.5" y="26" as="sourcePoint" />
            <mxPoint x="144.5" y="116" as="targetPoint" />
          </mxGeometry>
        </mxCell>
        <mxCell id="8jYFOJme-qLX-y-gI76f-3" value="- Lleva la logica de las            - GestorEfectos&#xa;pociones                                 - Entrenador&#xa;&#xa;" style="text;align=left;verticalAlign=top;spacingLeft=4;spacingRight=4;overflow=hidden;rotatable=0;points=[[0,0.5],[1,0.5]];portConstraint=eastwest;rounded=0;shadow=0;html=0;" vertex="1" parent="8jYFOJme-qLX-y-gI76f-1">
          <mxGeometry y="26" width="290" height="54" as="geometry" />
        </mxCell>
        <mxCell id="8jYFOJme-qLX-y-gI76f-7" value="" style="endArrow=none;html=1;rounded=0;entryX=0.535;entryY=0.999;entryDx=0;entryDy=0;entryPerimeter=0;exitX=0.535;exitY=0.024;exitDx=0;exitDy=0;exitPerimeter=0;" edge="1" parent="8jYFOJme-qLX-y-gI76f-1" source="8jYFOJme-qLX-y-gI76f-3" target="8jYFOJme-qLX-y-gI76f-3">
          <mxGeometry width="50" height="50" relative="1" as="geometry">
            <mxPoint x="-80" y="23" as="sourcePoint" />
            <mxPoint x="-79.5" y="127" as="targetPoint" />
          </mxGeometry>
        </mxCell>
        <mxCell id="8jYFOJme-qLX-y-gI76f-9" value="GestorEfectos" style="swimlane;fontStyle=2;align=center;verticalAlign=top;childLayout=stackLayout;horizontal=1;startSize=26;horizontalStack=0;resizeParent=1;resizeLast=0;collapsible=1;marginBottom=0;rounded=0;shadow=0;strokeWidth=1;" vertex="1" parent="WIyWlLk6GJQsqaUBKTNV-1">
          <mxGeometry x="420" y="420" width="290" height="130" as="geometry">
            <mxRectangle x="230" y="140" width="160" height="26" as="alternateBounds" />
          </mxGeometry>
        </mxCell>
        <mxCell id="8jYFOJme-qLX-y-gI76f-10" value="" style="endArrow=none;html=1;rounded=0;entryX=0.5;entryY=1;entryDx=0;entryDy=0;" edge="1" parent="8jYFOJme-qLX-y-gI76f-9" target="8jYFOJme-qLX-y-gI76f-9">
          <mxGeometry width="50" height="50" relative="1" as="geometry">
            <mxPoint x="144.5" y="26" as="sourcePoint" />
            <mxPoint x="144.5" y="116" as="targetPoint" />
          </mxGeometry>
        </mxCell>
        <mxCell id="8jYFOJme-qLX-y-gI76f-11" value="- Ejecuta los efectos           - Battle&#xa;y los elimina&#xa;                                            - Pokemon&#xa;- Almacena pokemones&#xa;afectados de la batalla        - Ataque&#xa; &#xa;                                            - GestorDeItems&#xa;" style="text;align=left;verticalAlign=top;spacingLeft=4;spacingRight=4;overflow=hidden;rotatable=0;points=[[0,0.5],[1,0.5]];portConstraint=eastwest;" vertex="1" parent="8jYFOJme-qLX-y-gI76f-9">
          <mxGeometry y="26" width="290" height="104" as="geometry" />
        </mxCell>
        <mxCell id="8jYFOJme-qLX-y-gI76f-12" value="WaitingList" style="swimlane;fontStyle=2;align=center;verticalAlign=top;childLayout=stackLayout;horizontal=1;startSize=26;horizontalStack=0;resizeParent=1;resizeLast=0;collapsible=1;marginBottom=0;rounded=0;shadow=0;strokeWidth=1;" vertex="1" parent="WIyWlLk6GJQsqaUBKTNV-1">
          <mxGeometry x="770" y="400" width="290" height="150" as="geometry">
            <mxRectangle x="230" y="140" width="160" height="26" as="alternateBounds" />
          </mxGeometry>
        </mxCell>
        <mxCell id="8jYFOJme-qLX-y-gI76f-13" value="" style="endArrow=none;html=1;rounded=0;entryX=0.5;entryY=1;entryDx=0;entryDy=0;" edge="1" parent="8jYFOJme-qLX-y-gI76f-12" target="8jYFOJme-qLX-y-gI76f-12">
          <mxGeometry width="50" height="50" relative="1" as="geometry">
            <mxPoint x="144.5" y="26" as="sourcePoint" />
            <mxPoint x="144.5" y="116" as="targetPoint" />
          </mxGeometry>
        </mxCell>
        <mxCell id="8jYFOJme-qLX-y-gI76f-14" value="- Almacena Entrenadores   - BattleList&#xa;&#xa;- Muestra a los &#xa;entrenadores esperando     - Entrenador&#xa;&#xa;- Agrega y remueve &#xa;entrenadores a la lista&#xa;de espera       " style="text;align=left;verticalAlign=top;spacingLeft=4;spacingRight=4;overflow=hidden;rotatable=0;points=[[0,0.5],[1,0.5]];portConstraint=eastwest;" vertex="1" parent="8jYFOJme-qLX-y-gI76f-12">
          <mxGeometry y="26" width="290" height="124" as="geometry" />
        </mxCell>
        <mxCell id="8jYFOJme-qLX-y-gI76f-15" value="Dormir" style="swimlane;fontStyle=2;align=center;verticalAlign=top;childLayout=stackLayout;horizontal=1;startSize=26;horizontalStack=0;resizeParent=1;resizeLast=0;collapsible=1;marginBottom=0;rounded=0;shadow=0;strokeWidth=1;" vertex="1" parent="WIyWlLk6GJQsqaUBKTNV-1">
          <mxGeometry x="-30" y="560" width="290" height="80" as="geometry">
            <mxRectangle x="230" y="140" width="160" height="26" as="alternateBounds" />
          </mxGeometry>
        </mxCell>
        <mxCell id="8jYFOJme-qLX-y-gI76f-16" value="" style="endArrow=none;html=1;rounded=0;entryX=0.5;entryY=1;entryDx=0;entryDy=0;" edge="1" parent="8jYFOJme-qLX-y-gI76f-15" target="8jYFOJme-qLX-y-gI76f-15">
          <mxGeometry width="50" height="50" relative="1" as="geometry">
            <mxPoint x="144.5" y="26" as="sourcePoint" />
            <mxPoint x="144.5" y="116" as="targetPoint" />
          </mxGeometry>
        </mxCell>
        <mxCell id="8jYFOJme-qLX-y-gI76f-17" value="- Lleva la logica del             - GestorEfectos&#xa;efecto" style="text;align=left;verticalAlign=top;spacingLeft=4;spacingRight=4;overflow=hidden;rotatable=0;points=[[0,0.5],[1,0.5]];portConstraint=eastwest;" vertex="1" parent="8jYFOJme-qLX-y-gI76f-15">
          <mxGeometry y="26" width="290" height="54" as="geometry" />
        </mxCell>
        <mxCell id="8jYFOJme-qLX-y-gI76f-18" value="Paralisis" style="swimlane;fontStyle=2;align=center;verticalAlign=top;childLayout=stackLayout;horizontal=1;startSize=26;horizontalStack=0;resizeParent=1;resizeLast=0;collapsible=1;marginBottom=0;rounded=0;shadow=0;strokeWidth=1;" vertex="1" parent="WIyWlLk6GJQsqaUBKTNV-1">
          <mxGeometry x="580" y="560" width="290" height="80" as="geometry">
            <mxRectangle x="230" y="140" width="160" height="26" as="alternateBounds" />
          </mxGeometry>
        </mxCell>
        <mxCell id="8jYFOJme-qLX-y-gI76f-19" value="" style="endArrow=none;html=1;rounded=0;entryX=0.5;entryY=1;entryDx=0;entryDy=0;" edge="1" parent="8jYFOJme-qLX-y-gI76f-18" target="8jYFOJme-qLX-y-gI76f-18">
          <mxGeometry width="50" height="50" relative="1" as="geometry">
            <mxPoint x="144.5" y="26" as="sourcePoint" />
            <mxPoint x="144.5" y="116" as="targetPoint" />
          </mxGeometry>
        </mxCell>
        <mxCell id="8jYFOJme-qLX-y-gI76f-20" value="- Lleva la logica del             - GestorEfectos&#xa;efecto" style="text;align=left;verticalAlign=top;spacingLeft=4;spacingRight=4;overflow=hidden;rotatable=0;points=[[0,0.5],[1,0.5]];portConstraint=eastwest;" vertex="1" parent="8jYFOJme-qLX-y-gI76f-18">
          <mxGeometry y="26" width="290" height="54" as="geometry" />
        </mxCell>
        <mxCell id="8jYFOJme-qLX-y-gI76f-21" value="Dormir" style="swimlane;fontStyle=2;align=center;verticalAlign=top;childLayout=stackLayout;horizontal=1;startSize=26;horizontalStack=0;resizeParent=1;resizeLast=0;collapsible=1;marginBottom=0;rounded=0;shadow=0;strokeWidth=1;" vertex="1" parent="WIyWlLk6GJQsqaUBKTNV-1">
          <mxGeometry x="269" y="560" width="290" height="80" as="geometry">
            <mxRectangle x="230" y="140" width="160" height="26" as="alternateBounds" />
          </mxGeometry>
        </mxCell>
        <mxCell id="8jYFOJme-qLX-y-gI76f-22" value="" style="endArrow=none;html=1;rounded=0;entryX=0.5;entryY=1;entryDx=0;entryDy=0;" edge="1" parent="8jYFOJme-qLX-y-gI76f-21" target="8jYFOJme-qLX-y-gI76f-21">
          <mxGeometry width="50" height="50" relative="1" as="geometry">
            <mxPoint x="144.5" y="26" as="sourcePoint" />
            <mxPoint x="144.5" y="116" as="targetPoint" />
          </mxGeometry>
        </mxCell>
        <mxCell id="8jYFOJme-qLX-y-gI76f-23" value="- Lleva la logica del             - GestorEfectos&#xa;efecto" style="text;align=left;verticalAlign=top;spacingLeft=4;spacingRight=4;overflow=hidden;rotatable=0;points=[[0,0.5],[1,0.5]];portConstraint=eastwest;" vertex="1" parent="8jYFOJme-qLX-y-gI76f-21">
          <mxGeometry y="26" width="290" height="54" as="geometry" />
        </mxCell>
        <mxCell id="8jYFOJme-qLX-y-gI76f-24" value="Quemar" style="swimlane;fontStyle=2;align=center;verticalAlign=top;childLayout=stackLayout;horizontal=1;startSize=26;horizontalStack=0;resizeParent=1;resizeLast=0;collapsible=1;marginBottom=0;rounded=0;shadow=0;strokeWidth=1;" vertex="1" parent="WIyWlLk6GJQsqaUBKTNV-1">
          <mxGeometry x="910" y="560" width="290" height="80" as="geometry">
            <mxRectangle x="230" y="140" width="160" height="26" as="alternateBounds" />
          </mxGeometry>
        </mxCell>
        <mxCell id="8jYFOJme-qLX-y-gI76f-25" value="" style="endArrow=none;html=1;rounded=0;entryX=0.5;entryY=1;entryDx=0;entryDy=0;" edge="1" parent="8jYFOJme-qLX-y-gI76f-24" target="8jYFOJme-qLX-y-gI76f-24">
          <mxGeometry width="50" height="50" relative="1" as="geometry">
            <mxPoint x="144.5" y="26" as="sourcePoint" />
            <mxPoint x="144.5" y="116" as="targetPoint" />
          </mxGeometry>
        </mxCell>
        <mxCell id="8jYFOJme-qLX-y-gI76f-26" value="- Lleva la logica del             - GestorEfectos&#xa;efecto" style="text;align=left;verticalAlign=top;spacingLeft=4;spacingRight=4;overflow=hidden;rotatable=0;points=[[0,0.5],[1,0.5]];portConstraint=eastwest;" vertex="1" parent="8jYFOJme-qLX-y-gI76f-24">
          <mxGeometry y="26" width="290" height="54" as="geometry" />
        </mxCell>
      </root>
    </mxGraphModel>
  </diagram>
</mxfile>
